<?xml version="1.0" encoding="UTF-8"?>
<svg width="57px" height="55px" viewBox="0 0 57 55" version="1.1" xmlns="http://www.w3.org/2000/svg" xmlns:xlink="http://www.w3.org/1999/xlink">
    <!-- Generator: Sketch 52.2 (67145) - http://www.bohemiancoding.com/sketch -->
    <title>Group 14 Copy 3@3x</title>
    <desc>Created with Sketch.</desc>
    <g id="Page-1" stroke="none" stroke-width="1" fill="none" fill-rule="evenodd">
        <g id="press-kit" transform="translate(-1085.000000, -1466.000000)" fill="#FFFFFF">
            <g id="Group-14-Copy-3" transform="translate(1085.000000, 1466.000000)">
                <path d="M21.933588,11.1963867 L26.9536688,-1.13686838e-13 L37.9468041,14.50481 L50.5832385,13.1249466 L43.1983878,29.6634533 L50.7408278,39.645127 L32.3637715,41.6779212 L27.2697772,53.0381047 L16.276177,38.5337459 L3.64253182,39.9127068 L11.0603879,23.295686 L3.4630938,13.2400104 L21.933588,11.1963867 Z M23.1292217,15.8950517 L23.0515892,16.3327455 L33.511524,15.2583652 L28.7434003,26.3184803 L33.2674697,32.1339412 L36.0278401,26.0856453 L37.2411386,23.4233843 C38.15088,21.4298472 37.8896257,19.1014969 36.5591811,17.347112 L27.5896045,5.51178268 L23.5578275,14.5075174 C23.3579354,14.9519796 23.2138272,15.4185521 23.1292217,15.8950517 Z M8.6765585,15.457358 L12.4889191,20.5025681 L12.7678383,20.1510594 C14.284229,18.2405488 16.555561,17.0010181 18.9998229,16.7492314 L20.1963863,16.6264966 L20.2159106,16.3444775 C20.2563539,15.7614874 20.3581594,15.1784974 20.5180731,14.6113005 L20.6538138,14.1325447 L8.6765585,15.457358 Z M40.8633692,26.7958823 L41.219921,27.1383664 L46.0057095,16.419833 L39.7314222,17.1043499 L39.9094656,17.5181285 C40.8791747,19.770672 40.8550017,22.3345647 39.842525,24.5519122 L39.3544164,25.6240363 L39.5933572,25.7815158 C40.0428819,26.0770719 40.4700932,26.4182023 40.8633692,26.7958823 Z M14.2419263,23.1264745 L8.21773642,36.6178204 L18.223033,35.5271959 C18.7185794,35.472597 19.2048285,35.361143 19.669229,35.1941877 L20.0964403,35.0412205 L13.911407,26.7430884 L26.1192355,25.2422951 L29.0199952,18.5126409 L19.2991962,19.5116656 C17.0743507,19.7390858 15.1363272,21.124364 14.2419263,23.1264745 Z M24.7962288,36.6218815 C25.9644353,38.1881032 27.8527183,39.1226019 29.8465257,39.1226019 C30.0757043,39.1226019 30.3076721,39.1104187 30.5345264,39.085601 L45.5268983,37.4277795 L39.5552382,29.5222181 C39.2600487,29.1323548 38.9179078,28.776785 38.5371831,28.4672408 L38.1871395,28.1825142 L33.9108433,37.5550265 L26.4748575,27.9979609 L19.0486338,28.9094468 L24.7962288,36.6218815 Z M19.5088505,38.1249309 L26.6338414,47.5258707 L29.1645683,41.8805238 L28.7080705,41.8236687 C26.221041,41.5172831 23.9557522,40.2163851 22.4932859,38.2557878 L21.785296,37.3059472 L21.5254363,37.4295844 C21.0387223,37.6610657 20.5222569,37.8510339 19.9913807,37.9945252 L19.5088505,38.1249309 Z M5.41176471,42.6898135 L8.60399494,42.3414634 C9.13347656,42.9713814 9.69503388,43.5764818 10.2742561,44.1418738 C13.7384325,47.5202379 18.0770207,49.7989528 22.829339,50.738415 L25.1364656,53.7824172 C17.2021441,53.0414964 10.0762235,49.0368242 5.41176471,42.6898135 Z M46.9951141,44.1300378 L50.868837,43.7018199 C46.2169296,50.0420621 39.1026305,54.0548565 31.1678442,54.8057044 L32.4545914,51.9367797 C37.5983263,51.1304305 42.2762662,48.7921532 45.9933294,45.1674172 C46.3257081,44.8429823 46.6622706,44.4950835 46.9951141,44.1300378 Z M52.2894776,19.2080338 L53.8416629,15.7326552 C55.4514916,19.1818624 56.2770924,22.8630023 56.2975465,26.6894384 L56.2975465,26.9773236 C56.2770924,30.7978937 55.4538159,34.4758749 53.848171,37.9223748 L51.946407,35.4049589 C53.0058351,32.6754645 53.5432194,29.7921005 53.5432194,26.833381 C53.5432194,24.2230115 53.1215865,21.6582164 52.2894776,19.2080338 Z M-7.00638794e-18,26.915505 C9.41154955e-16,23.0073961 0.838617059,19.2486446 2.49353764,15.7326552 L4.39111793,18.2442051 C3.30472765,21.0048344 2.75432709,23.920687 2.75432709,26.915505 C2.75432709,29.5358015 3.17921401,32.1096213 4.01783107,34.567926 L2.46750518,38.0405972 C0.829784618,34.5408521 -9.50022415e-16,30.802406 -7.00638794e-18,26.915505 Z M24.7905739,-1.13686838e-13 L23.5047564,2.8671197 C18.3526539,3.67076153 13.6672762,6.01039258 9.9441698,9.64054335 C9.66432087,9.91398914 9.38028815,10.2045817 9.09857976,10.5078087 L5.1946407,10.9396365 C9.85398592,4.69189655 16.930166,0.739115844 24.7905739,-1.13686838e-13 Z M33.4768303,3.04670951 L31.1678442,-1.13686838e-13 C39.094263,0.746335535 46.2136755,4.75191023 50.8739505,11.0930549 L47.6812554,11.441405 C47.1513089,10.8110357 46.5897516,10.2050329 46.0086699,9.63873843 C42.5500718,6.26578914 38.2193864,3.98842793 33.4768303,3.04670951 Z" id="合并形状"></path>
            </g>
        </g>
    </g>
</svg>