<?xml version="1.0" encoding="UTF-8"?>
<svg width="208px" height="55px" viewBox="0 0 208 55" version="1.1" xmlns="http://www.w3.org/2000/svg" xmlns:xlink="http://www.w3.org/1999/xlink">
    <!-- Generator: Sketch 52.2 (67145) - http://www.bohemiancoding.com/sketch -->
    <title>分组 12 copy 3@3x</title>
    <desc>Created with Sketch.</desc>
    <g id="Page-1" stroke="none" stroke-width="1" fill="none" fill-rule="evenodd">
        <g id="press-kit" transform="translate(-856.000000, -1226.000000)" fill="#FFFFFF">
            <g id="分组-12-copy-3" transform="translate(856.000000, 1226.000000)">
                <g id="分组" transform="translate(71.740373, 16.361455)">
                    <path d="M122.963142,0.681727309 L126.382742,0.681727309 L126.382742,4.28973694 L132.794494,4.28973694 L132.794494,7.78841294 L126.382742,7.78841294 L126.382742,17.5191056 C126.382742,19.0865124 127.629187,20.3617798 129.161168,20.3617798 L132.153319,20.3617798 C133.921252,20.3617798 135.359194,21.8329731 135.359194,23.6417886 L135.359194,23.8604558 L129.161168,23.8604558 C125.743704,23.8604558 122.963142,21.0155949 122.963142,17.5191056 L122.963142,7.78841294 L119.116091,7.78841294 L119.116091,4.28973694 L122.963142,4.28973694 L122.963142,0.681727309 Z M99.6785106,3.51468302 L108.774648,3.51468302 C110.484722,3.51468302 112.083693,4.17577671 113.276587,5.37664694 C114.469047,6.5766688 115.099929,8.16121516 115.052933,9.83844613 C114.960672,13.1345825 112.083477,15.8160736 108.639506,15.8160736 L98.1624876,15.8160736 L98.1624876,15.6039806 C98.1624876,13.8495478 99.6196023,12.4225865 101.411108,12.4225865 L108.698631,12.4225865 C110.178486,12.4225865 111.443282,11.3279749 111.577558,9.93049447 C111.652926,9.14511431 111.396718,8.39239646 110.856581,7.81104971 C110.323158,7.23733831 109.56428,6.90817007 108.774648,6.90817007 L99.6785106,6.90817007 C98.1261031,6.90817007 96.8630394,8.14509609 96.8630394,9.66537829 L96.8630394,16.3463059 C96.8630394,17.8665881 98.1261031,19.1035141 99.6785106,19.1035141 L111.806694,19.1035141 C113.5982,19.1035141 115.055315,20.5304755 115.055315,22.2849083 L115.055381,22.4970012 L99.6785106,22.4970012 C96.215481,22.4970012 93.397844,19.737672 93.397844,16.3463059 L93.397844,9.66537829 C93.397844,6.27401217 96.215481,3.51468302 99.6785106,3.51468302 Z M70.0619189,3.40863655 L82.7315395,3.40863655 C86.373893,3.40863655 89.3370682,6.37644342 89.3370682,10.0244902 L89.3370682,22.4970012 L89.1204934,22.4970012 C87.3289874,22.4970012 85.8718728,21.037609 85.8718728,19.2433027 L85.8718728,10.0244902 C85.8718728,8.29026889 84.4630543,6.8792483 82.7315395,6.8792483 L72.0110913,6.8792483 C71.5333275,6.8792483 71.1447925,7.26860756 71.1447925,7.74690124 L71.1447925,22.4970012 L67.6795971,22.4970012 L67.6795971,5.79468213 C67.6795971,4.47888645 68.7483933,3.40863655 70.0619189,3.40863655 Z" id="合并形状"></path>
                    <g transform="translate(0.000000, 0.681727)">
                        <polygon id="Fill-3" points="0 23.1787285 3.48596281 23.1787285 3.48596281 0 0 0"></polygon>
                        <polygon id="Fill-5" points="33.9881374 23.1787285 37.4741002 23.1787285 37.4741002 0 33.9881374 0"></polygon>
                        <path d="M41.8315537,23.1787285 L41.8315537,22.9600613 C41.8315537,21.1514644 43.2976189,19.6800525 45.0996438,19.6800525 L56.9737047,19.6800525 C57.845849,19.6800525 58.6580783,19.3297476 59.2613678,18.6940819 C59.8640036,18.0588535 60.1720755,17.2263873 60.1289367,16.349969 C60.0459273,14.6614205 58.6223472,13.3387023 56.8882986,13.3387023 L48.4766703,13.3387023 C46.6672377,13.3387023 44.9756743,12.6216923 43.7137558,11.3199662 C42.4520551,10.0184587 41.7842753,8.30039015 41.8341682,6.48195329 C41.9317751,2.90761842 44.9756743,0 48.6193769,0 L61.9847762,0 L61.9847762,0.21866725 C61.9847762,2.02726408 60.518711,3.498676 58.7166861,3.498676 L48.4766703,3.498676 C47.604526,3.498676 46.7922967,3.84898094 46.1890072,4.48464663 C45.5863714,5.11987499 45.2782994,5.95234121 45.3214382,6.82875955 C45.4044477,8.51730806 46.8280278,9.84002625 48.5620764,9.84002625 L56.9737047,9.84002625 C58.7831372,9.84002625 60.4747007,10.5570362 61.7366192,11.8587623 C62.9983199,13.1602698 63.6660996,14.8783384 63.6162068,16.6967752 C63.5185998,20.2711101 60.4747007,23.1787285 56.8309981,23.1787285 L41.8315537,23.1787285 Z" id="Fill-6"></path>
                        <path d="M27.158134,23.1787285 C26.0269391,23.1787285 24.9728711,22.6701085 24.2660921,21.7836315 L18.0573745,13.994704 L13.7260657,13.994704 L13.7260657,13.7760368 C13.7260657,11.9674399 15.1919131,10.496028 16.9941558,10.496028 L22.6588454,10.496028 C24.5809182,10.496028 26.1448082,8.92643448 26.1448082,6.997352 L26.1448082,4.373345 C26.1448082,3.89118372 25.7539446,3.498676 25.2733175,3.498676 L12.200957,3.498676 C11.7203299,3.498676 11.3294663,3.89118372 11.3294663,4.373345 L11.3294663,23.1787285 L7.84350347,23.1787285 L7.84350347,2.40533975 C7.84350347,1.07912288 8.91848725,0 10.2401029,0 L27.2341716,0 C28.5555694,0 29.630771,1.07912288 29.630771,2.40533975 L29.630771,6.997352 C29.630771,10.4170891 27.0956046,13.3894331 23.7336113,13.9118291 L23.3617027,13.9695573 L30.7024867,23.1787285 L27.158134,23.1787285 Z" id="Fill-7"></path>
                    </g>
                </g>
                <path d="M21.9441381,11.1767209 L26.9666335,-1.77635684e-14 L37.9650566,14.4793332 L50.607569,13.1018934 L43.2191663,29.6113512 L50.7652342,39.5754927 L32.3793385,41.6047164 L27.282894,52.9449464 L16.2840058,38.4660636 L3.64428388,39.8426025 L11.065708,23.2547685 L3.46475955,13.2167552 L21.9441381,11.1767209 Z M23.1403468,15.867133 L23.062677,16.304058 L33.5276431,15.2315648 L28.7572259,26.2722535 L33.2834714,32.0774999 L36.0451695,26.0398274 L37.2590516,23.3822425 C38.1692306,21.3922069 37.9078506,19.0679463 36.5767661,17.3166429 L27.6028752,5.50210157 L23.5691588,14.4820358 C23.3691706,14.9257174 23.224993,15.3914704 23.1403468,15.867133 Z M8.68073193,15.430208 L12.4949263,20.4665566 L12.7739796,20.1156653 C14.2910997,18.2085103 16.5635242,16.9711568 19.0089619,16.7198124 L20.2061008,16.5972932 L20.2256345,16.3157694 C20.2660972,15.7338033 20.3679517,15.1518373 20.5279423,14.5856366 L20.6637483,14.1077217 L8.68073193,15.430208 Z M40.8830245,26.748817 L41.2397478,27.0906995 L46.0278383,16.3909925 L39.750533,17.0743072 L39.9286621,17.4873589 C40.8988376,19.735946 40.8746529,22.2953353 39.8616892,24.5087882 L39.3733459,25.5790292 L39.6124016,25.7362321 C40.0621426,26.0312691 40.4895593,26.3718003 40.8830245,26.748817 Z M14.2487766,23.0858542 L8.22168915,36.5535034 L18.2317983,35.4647945 C18.7275831,35.4102915 19.2140661,35.2990333 19.6786899,35.1323712 L20.1061066,34.9796726 L13.9180984,26.6961157 L26.1317989,25.1979586 L29.0339538,18.4801245 L19.3084791,19.4773945 C17.0825635,19.7044153 15.1436077,21.0872603 14.2487766,23.0858542 Z M24.8081558,36.5575574 C25.9769242,38.1210281 27.8661155,39.0538854 29.8608819,39.0538854 C30.0901708,39.0538854 30.3222501,39.0417236 30.5492135,39.0169495 L45.5487967,37.3620398 L39.5742643,29.4703641 C39.2789328,29.0811855 38.9366274,28.7262403 38.5557195,28.4172398 L38.2055076,28.1330133 L33.9271545,37.4890634 L26.4875919,27.9487841 L19.0577962,28.8586691 L24.8081558,36.5575574 Z M19.5182342,38.0579667 L26.6466523,47.4423944 L29.1785965,41.8069631 L28.7218791,41.7502079 C26.2336533,41.4443605 23.967275,40.1457474 22.5041052,38.1885938 L21.7957747,37.2404215 L21.53579,37.3638416 C21.0488419,37.5949163 20.5321281,37.7845508 20.0009966,37.9277901 L19.5182342,38.0579667 Z M5.41436777,42.6148314 L8.60813347,42.2670932 C9.13786976,42.8959048 9.69969719,43.4999423 10.279198,44.0643412 C13.7450407,47.4367714 18.0857157,49.7114839 22.8403199,50.649296 L25.1485563,53.6879516 C17.2104184,52.9483322 10.0810701,48.9506939 5.41436777,42.6148314 Z M47.0177188,44.0525261 L50.8933049,43.6250603 C46.2391599,49.9541662 39.1214389,53.9599124 31.1828359,54.7094414 L32.4702021,51.8455559 C37.6164111,51.040623 42.2966011,48.7064527 46.0154522,45.0880833 C46.3479908,44.7642183 46.6847151,44.4169305 47.0177188,44.0525261 Z M52.3146288,19.1742961 L53.8675608,15.7050217 C55.4781638,19.1481707 56.3041617,22.8228448 56.3246256,26.64256 L56.3246256,26.9299395 C56.3041617,30.743799 55.4804892,34.4153201 53.874072,37.8557664 L51.9713932,35.3427722 C53.0313309,32.618072 53.5689737,29.7397725 53.5689737,26.7862498 C53.5689737,24.1804653 53.147138,21.620175 52.3146288,19.1742961 Z M-6.75085697e-14,26.8682295 C-6.65599522e-14,22.966985 0.839020435,19.2148355 2.49473704,15.7050217 L4.39323006,18.2121602 C3.30631722,20.9679406 2.75565193,23.8786717 2.75565193,26.8682295 C2.75565193,29.4839236 3.18074321,32.0532226 4.01976365,34.5072095 L2.46869205,37.9737812 C0.830183745,34.4801832 -6.84520393e-14,30.7483034 -6.75085697e-14,26.8682295 Z M24.8024982,-1.77635684e-14 L23.5160622,2.86208378 C18.3614816,3.66431406 13.6738502,5.99983568 9.94895295,9.62361031 C9.66896941,9.89657581 9.38480007,10.186658 9.10295618,10.4893524 L5.19713932,10.9204216 C9.85872569,4.68365551 16.9383094,0.737817631 24.8024982,-1.77635684e-14 Z M33.4929327,3.04135815 L31.1828359,-1.77635684e-14 C39.1130673,0.745024641 46.2359043,4.74356378 50.8984209,11.0735706 L47.7041901,11.4213088 C47.1739887,10.7920468 46.6121613,10.1871084 46.0308001,9.62180856 C42.5705384,6.25478366 38.2377699,3.98142249 33.4929327,3.04135815 Z" id="合并形状"></path>
            </g>
        </g>
    </g>
</svg>