<?xml version="1.0" encoding="UTF-8"?>
<svg width="68px" height="77px" viewBox="0 0 68 77" version="1.1" xmlns="http://www.w3.org/2000/svg" xmlns:xlink="http://www.w3.org/1999/xlink">
    <!-- Generator: Sketch 52.2 (67145) - http://www.bohemiancoding.com/sketch -->
    <title>Group 14@3x</title>
    <desc>Created with Sketch.</desc>
    <defs>
        <linearGradient x1="1.92415626%" y1="50%" x2="100%" y2="50%" id="linearGradient-1">
            <stop stop-color="#1B89CE" offset="0%"></stop>
            <stop stop-color="#724B9A" offset="49.7042088%"></stop>
            <stop stop-color="#C03E6E" offset="100%"></stop>
        </linearGradient>
        <linearGradient x1="78.770689%" y1="9.987221%" x2="29.6374379%" y2="95.2754203%" id="linearGradient-2">
            <stop stop-color="#E33759" offset="0%"></stop>
            <stop stop-color="#6E4C9C" offset="52.1744039%"></stop>
            <stop stop-color="#188BCF" offset="100%"></stop>
        </linearGradient>
    </defs>
    <g id="Page-1" stroke="none" stroke-width="1" fill="none" fill-rule="evenodd">
        <g id="press-kit" transform="translate(-465.000000, -1455.000000)">
            <g id="Group-14" transform="translate(465.000000, 1455.000000)">
                <g id="分组" transform="translate(0.000000, 65.000000)">
                    <path d="M61.7726316,0.333333333 L63.4905263,0.333333333 L63.4905263,2.09748428 L66.7115789,2.09748428 L66.7115789,3.8081761 L63.4905263,3.8081761 L63.4905263,8.56603774 C63.4905263,9.33242767 64.1166989,9.95597484 64.8863158,9.95597484 L66.3894737,9.95597484 C67.2776253,9.95597484 68,10.6753208 68,11.5597484 L68,11.6666667 L64.8863158,11.6666667 C63.1694947,11.6666667 61.7726316,10.2756604 61.7726316,8.56603774 L61.7726316,3.8081761 L59.84,3.8081761 L59.84,2.09748428 L61.7726316,2.09748428 L61.7726316,0.333333333 Z M50.0752,1.71851852 L54.6448,1.71851852 C55.5038848,1.71851852 56.3071552,2.04176296 56.9064256,2.62893333 C57.5054784,3.21568889 57.8224128,3.99045926 57.7988032,4.81054815 C57.7524544,6.42220741 56.3070464,7.73333333 54.5769088,7.73333333 L49.3136,7.73333333 L49.3136,7.62962963 C49.3136,6.77179259 50.0456064,6.07407407 50.9456,6.07407407 L54.6066112,6.07407407 C55.3500416,6.07407407 55.9854336,5.53885926 56.0528896,4.85555556 C56.090752,4.47154074 55.9620416,4.1034963 55.6906944,3.81924444 C55.42272,3.53872593 55.0414848,3.37777778 54.6448,3.37777778 L50.0752,3.37777778 C49.2953216,3.37777778 48.6608,3.98257778 48.6608,4.72592593 L48.6608,7.99259259 C48.6608,8.73594074 49.2953216,9.34074074 50.0752,9.34074074 L56.168,9.34074074 C57.0679936,9.34074074 57.8,10.0384593 57.8,10.8962963 L57.8000333,11 L50.0752,11 C48.335488,11 46.92,9.65081481 46.92,7.99259259 L46.92,4.72592593 C46.92,3.0677037 48.335488,1.71851852 50.0752,1.71851852 Z M35.1968,1.66666667 L41.5616,1.66666667 C43.3913984,1.66666667 44.88,3.11778788 44.88,4.90151515 L44.88,11 L44.7712,11 C43.8712064,11 43.1392,10.2864242 43.1392,9.40909091 L43.1392,4.90151515 C43.1392,4.05356061 42.431456,3.36363636 41.5616,3.36363636 L36.176,3.36363636 C35.9359872,3.36363636 35.7408,3.55401515 35.7408,3.78787879 L35.7408,11 L34,11 L34,2.83333333 C34,2.1899697 34.536928,1.66666667 35.1968,1.66666667 Z" id="合并形状" fill="url(#linearGradient-1)"></path>
                    <g transform="translate(0.000000, 0.333333)" fill="#FFFFFF">
                        <polygon id="Fill-3" points="0 11.3333333 1.75123288 11.3333333 1.75123288 0 0 0"></polygon>
                        <polygon id="Fill-5" points="17.0745205 11.3333333 18.8257534 11.3333333 18.8257534 0 17.0745205 0"></polygon>
                        <path d="M21.0147945,11.3333333 L21.0147945,11.2264151 C21.0147945,10.3420943 21.7512974,9.62264151 22.6565753,9.62264151 L28.6217123,9.62264151 C29.0598489,9.62264151 29.4678862,9.45135849 29.7709589,9.14054717 C30.0737033,8.82994969 30.2284685,8.42291195 30.206797,7.99438365 C30.1650958,7.16876101 29.449936,6.52201258 28.5788071,6.52201258 L24.3530822,6.52201258 C23.4440829,6.52201258 22.5942971,6.17142767 21.9603508,5.5349434 C21.326514,4.89856604 20.9910434,4.05850943 21.0161079,3.16937736 C21.0651425,1.42169182 22.5942971,0 24.4247733,0 L31.1391096,0 L31.1391096,0.106918239 C31.1391096,0.991238994 30.4026067,1.71069182 29.4973288,1.71069182 L24.3530822,1.71069182 C23.9149456,1.71069182 23.5069084,1.88197484 23.2038356,2.19278616 C22.9010912,2.50338365 22.746326,2.91042138 22.7679975,3.33894969 C22.8096988,4.16457233 23.5248585,4.81132075 24.3959874,4.81132075 L28.6217123,4.81132075 C29.5307116,4.81132075 30.3804974,5.16190566 31.0144437,5.79838994 C31.6482805,6.4347673 31.9837511,7.2748239 31.9586866,8.16395597 C31.9096521,9.91164151 30.3804974,11.3333333 28.5500212,11.3333333 L21.0147945,11.3333333 Z" id="Fill-6"></path>
                        <path d="M13.6433519,11.3333333 C13.0750768,11.3333333 12.5455478,11.0846415 12.1904853,10.651195 L9.07143008,6.8427673 L6.89552323,6.8427673 L6.89552323,6.73584906 C6.89552323,5.8515283 7.63191666,5.13207547 8.53730405,5.13207547 L11.3830575,5.13207547 C12.3486435,5.13207547 13.1342904,4.36461635 13.1342904,3.42138365 L13.1342904,2.13836478 C13.1342904,1.90261006 12.9379334,1.71069182 12.6964821,1.71069182 L6.12935885,1.71069182 C5.88790762,1.71069182 5.69155063,1.90261006 5.69155063,2.13836478 L5.69155063,11.3333333 L3.94031775,11.3333333 L3.94031775,1.17610063 C3.94031775,0.527641509 4.48035419,0 5.14429036,0 L13.6815506,0 C14.3453773,0 14.8855232,0.527641509 14.8855232,1.17610063 L14.8855232,3.42138365 C14.8855232,5.09347799 13.6119391,6.54681761 11.9229845,6.80224528 L11.7361498,6.8304717 L15.4239179,11.3333333 L13.6433519,11.3333333 Z" id="Fill-7"></path>
                    </g>
                </g>
                <path d="M27.933588,11.1963867 L32.9536688,-9.9475983e-14 L43.9468041,14.50481 L56.5832385,13.1249466 L49.1983878,29.6634533 L56.7408278,39.645127 L38.3637715,41.6779212 L33.2697772,53.0381047 L22.276177,38.5337459 L9.64253182,39.9127068 L17.0603879,23.295686 L9.4630938,13.2400104 L27.933588,11.1963867 Z M29.1292217,15.8950517 L29.0515892,16.3327455 L39.511524,15.2583652 L34.7434003,26.3184803 L39.2674697,32.1339412 L42.0278401,26.0856453 L43.2411386,23.4233843 C44.15088,21.4298472 43.8896257,19.1014969 42.5591811,17.347112 L33.5896045,5.51178268 L29.5578275,14.5075174 C29.3579354,14.9519796 29.2138272,15.4185521 29.1292217,15.8950517 Z M14.6765585,15.457358 L18.4889191,20.5025681 L18.7678383,20.1510594 C20.284229,18.2405488 22.555561,17.0010181 24.9998229,16.7492314 L26.1963863,16.6264966 L26.2159106,16.3444775 C26.2563539,15.7614874 26.3581594,15.1784974 26.5180731,14.6113005 L26.6538138,14.1325447 L14.6765585,15.457358 Z M46.8633692,26.7958823 L47.219921,27.1383664 L52.0057095,16.419833 L45.7314222,17.1043499 L45.9094656,17.5181285 C46.8791747,19.770672 46.8550017,22.3345647 45.842525,24.5519122 L45.3544164,25.6240363 L45.5933572,25.7815158 C46.0428819,26.0770719 46.4700932,26.4182023 46.8633692,26.7958823 Z M20.2419263,23.1264745 L14.2177364,36.6178204 L24.223033,35.5271959 C24.7185794,35.472597 25.2048285,35.361143 25.669229,35.1941877 L26.0964403,35.0412205 L19.911407,26.7430884 L32.1192355,25.2422951 L35.0199952,18.5126409 L25.2991962,19.5116656 C23.0743507,19.7390858 21.1363272,21.124364 20.2419263,23.1264745 Z M30.7962288,36.6218815 C31.9644353,38.1881032 33.8527183,39.1226019 35.8465257,39.1226019 C36.0757043,39.1226019 36.3076721,39.1104187 36.5345264,39.085601 L51.5268983,37.4277795 L45.5552382,29.5222181 C45.2600487,29.1323548 44.9179078,28.776785 44.5371831,28.4672408 L44.1871395,28.1825142 L39.9108433,37.5550265 L32.4748575,27.9979609 L25.0486338,28.9094468 L30.7962288,36.6218815 Z M25.5088505,38.1249309 L32.6338414,47.5258707 L35.1645683,41.8805238 L34.7080705,41.8236687 C32.221041,41.5172831 29.9557522,40.2163851 28.4932859,38.2557878 L27.785296,37.3059472 L27.5254363,37.4295844 C27.0387223,37.6610657 26.5222569,37.8510339 25.9913807,37.9945252 L25.5088505,38.1249309 Z M11.4117647,42.6898135 L14.6039949,42.3414634 C15.1334766,42.9713814 15.6950339,43.5764818 16.2742561,44.1418738 C19.7384325,47.5202379 24.0770207,49.7989528 28.829339,50.738415 L31.1364656,53.7824172 C23.2021441,53.0414964 16.0762235,49.0368242 11.4117647,42.6898135 Z M52.9951141,44.1300378 L56.868837,43.7018199 C52.2169296,50.0420621 45.1026305,54.0548565 37.1678442,54.8057044 L38.4545914,51.9367797 C43.5983263,51.1304305 48.2762662,48.7921532 51.9933294,45.1674172 C52.3257081,44.8429823 52.6622706,44.4950835 52.9951141,44.1300378 Z M58.2894776,19.2080338 L59.8416629,15.7326552 C61.4514916,19.1818624 62.2770924,22.8630023 62.2975465,26.6894384 L62.2975465,26.9773236 C62.2770924,30.7978937 61.4538159,34.4758749 59.848171,37.9223748 L57.946407,35.4049589 C59.0058351,32.6754645 59.5432194,29.7921005 59.5432194,26.833381 C59.5432194,24.2230115 59.1215865,21.6582164 58.2894776,19.2080338 Z M6,26.915505 C6,23.0073961 6.83861706,19.2486446 8.49353764,15.7326552 L10.3911179,18.2442051 C9.30472765,21.0048344 8.75432709,23.920687 8.75432709,26.915505 C8.75432709,29.5358015 9.17921401,32.1096213 10.0178311,34.567926 L8.46750518,38.0405972 C6.82978462,34.5408521 6,30.802406 6,26.915505 Z M30.7905739,-9.9475983e-14 L29.5047564,2.8671197 C24.3526539,3.67076153 19.6672762,6.01039258 15.9441698,9.64054335 C15.6643209,9.91398914 15.3802881,10.2045817 15.0985798,10.5078087 L11.1946407,10.9396365 C15.8539859,4.69189655 22.930166,0.739115844 30.7905739,-9.9475983e-14 Z M39.4768303,3.04670951 L37.1678442,-9.9475983e-14 C45.094263,0.746335535 52.2136755,4.75191023 56.8739505,11.0930549 L53.6812554,11.441405 C53.1513089,10.8110357 52.5897516,10.2050329 52.0086699,9.63873843 C48.5500718,6.26578914 44.2193864,3.98842793 39.4768303,3.04670951 Z" id="合并形状" fill="url(#linearGradient-2)"></path>
            </g>
        </g>
    </g>
</svg>