<?xml version="1.0" encoding="UTF-8"?>
<svg width="207px" height="55px" viewBox="0 0 207 55" version="1.1" xmlns="http://www.w3.org/2000/svg" xmlns:xlink="http://www.w3.org/1999/xlink">
    <!-- Generator: Sketch 52.2 (67145) - http://www.bohemiancoding.com/sketch -->
    <title>分组 12 copy 2@3x</title>
    <desc>Created with Sketch.</desc>
    <defs>
        <linearGradient x1="1.92415626%" y1="50%" x2="100%" y2="50%" id="linearGradient-1">
            <stop stop-color="#1B89CE" offset="0%"></stop>
            <stop stop-color="#724B9A" offset="49.7042088%"></stop>
            <stop stop-color="#C03E6E" offset="100%"></stop>
        </linearGradient>
        <linearGradient x1="78.770689%" y1="9.987221%" x2="29.6374379%" y2="95.2754203%" id="linearGradient-2">
            <stop stop-color="#E33759" offset="0%"></stop>
            <stop stop-color="#6E4C9C" offset="52.1744039%"></stop>
            <stop stop-color="#188BCF" offset="100%"></stop>
        </linearGradient>
    </defs>
    <g id="Page-1" stroke="none" stroke-width="1" fill="none" fill-rule="evenodd">
        <g id="press-kit" transform="translate(-447.000000, -1226.000000)">
            <g id="分组-12-copy-2" transform="translate(447.000000, 1226.000000)">
                <g id="分组" transform="translate(71.705882, 16.390244)">
                    <path d="M122.904025,0.682926829 L126.321981,0.682926829 L126.321981,4.29728486 L132.73065,4.29728486 L132.73065,7.80211689 L126.321981,7.80211689 L126.321981,17.549931 C126.321981,19.1200957 127.567827,20.397607 129.099071,20.397607 L132.089783,20.397607 C133.856867,20.397607 135.294118,21.8713889 135.294118,23.683387 L135.294118,23.902439 L129.099071,23.902439 C125.683251,23.902439 122.904025,21.0525725 122.904025,17.549931 L122.904025,7.80211689 L119.058824,7.80211689 L119.058824,4.29728486 L122.904025,4.29728486 L122.904025,0.682926829 Z M99.6305882,3.52086721 L108.722353,3.52086721 C110.431605,3.52086721 112.029807,4.18312412 113.222127,5.38610732 C114.414014,6.58824065 115.044593,8.17557507 114.997619,9.85575718 C114.905402,13.1576932 112.029591,15.8439024 108.587275,15.8439024 L98.1152941,15.8439024 L98.1152941,15.6314363 C98.1152941,13.8739165 99.5717082,12.4444444 101.362353,12.4444444 L108.646372,12.4444444 C110.125515,12.4444444 111.389704,11.3479068 111.523915,9.94796748 C111.599247,9.16120542 111.343162,8.40716314 110.803285,7.8247935 C110.270118,7.25007263 109.511605,6.9203252 108.722353,6.9203252 L99.6305882,6.9203252 C98.0789271,6.9203252 96.8164706,8.15942764 96.8164706,9.68238482 L96.8164706,16.3750678 C96.8164706,17.8980249 98.0789271,19.1371274 99.6305882,19.1371274 L111.752941,19.1371274 C113.543586,19.1371274 115,20.5665995 115,22.3241192 L115.000066,22.5365854 L99.6305882,22.5365854 C96.1692235,22.5365854 93.3529412,19.7724011 93.3529412,16.3750678 L93.3529412,9.68238482 C93.3529412,6.28505149 96.1692235,3.52086721 99.6305882,3.52086721 Z M70.0282353,3.41463415 L82.6917647,3.41463415 C86.3323671,3.41463415 89.2941176,6.38766297 89.2941176,10.0421286 L89.2941176,22.5365854 L89.0776471,22.5365854 C87.2870024,22.5365854 85.8305882,21.0746253 85.8305882,19.2771619 L85.8305882,10.0421286 C85.8305882,8.30485588 84.4224471,6.89135255 82.6917647,6.89135255 L71.9764706,6.89135255 C71.4989365,6.89135255 71.1105882,7.2813969 71.1105882,7.76053215 L71.1105882,22.5365854 L67.6470588,22.5365854 L67.6470588,5.80487805 C67.6470588,4.48676718 68.7153412,3.41463415 70.0282353,3.41463415 Z" id="合并形状" fill="url(#linearGradient-1)"></path>
                    <g transform="translate(0.000000, 0.682927)" fill="#FFFFFF">
                        <polygon id="Fill-3" points="0 23.2195122 3.48428687 23.2195122 3.48428687 0 0 0"></polygon>
                        <polygon id="Fill-5" points="33.9717969 23.2195122 37.4560838 23.2195122 37.4560838 0 33.9717969 0"></polygon>
                        <path d="M41.8114424,23.2195122 L41.8114424,23.0004602 C41.8114424,21.1886811 43.2768028,19.7146802 45.0779613,19.7146802 L56.9463135,19.7146802 C57.8180385,19.7146802 58.6298773,19.3637589 59.2328767,18.7269747 C59.8352228,18.0906286 60.1431467,17.2566977 60.1000286,16.3787372 C60.017059,14.6872177 58.5941634,13.3621721 56.8609484,13.3621721 L48.4533642,13.3621721 C46.6448016,13.3621721 44.9540514,12.6439006 43.6927395,11.339884 C42.4316454,10.0360865 41.7641867,8.31499494 41.8140556,6.49335849 C41.9116156,2.91273447 44.9540514,0 48.5960022,0 L61.9549758,0 L61.9549758,0.219052002 C61.9549758,2.03083111 60.4896154,3.50483203 58.6884569,3.50483203 L48.4533642,3.50483203 C47.5816392,3.50483203 46.7698004,3.85575334 46.166801,4.49253751 C45.5644549,5.12888357 45.256531,5.96281454 45.2996491,6.84077497 C45.3826187,8.53229452 46.8055143,9.85734008 48.5387293,9.85734008 L56.9463135,9.85734008 C58.7548761,9.85734008 60.4456263,10.5756116 61.7069382,11.8796282 C62.9680322,13.1834257 63.6354909,14.9045173 63.5856221,16.7261537 C63.488062,20.3067777 60.4456263,23.2195122 56.8036755,23.2195122 L41.8114424,23.2195122 Z" id="Fill-6"></path>
                        <path d="M27.1450772,23.2195122 C26.0144261,23.2195122 24.9608649,22.7099972 24.2544257,21.8219604 L18.0486931,14.0193281 L13.7194666,14.0193281 L13.7194666,13.8002761 C13.7194666,11.988497 15.1846093,10.5144961 16.9859856,10.5144961 L22.6479517,10.5144961 C24.5691004,10.5144961 26.1322386,8.94214082 26.1322386,7.00966406 L26.1322386,4.38104004 C26.1322386,3.89803037 25.7415629,3.50483203 25.2611669,3.50483203 L12.1950911,3.50483203 C11.7146951,3.50483203 11.3240194,3.89803037 11.3240194,4.38104004 L11.3240194,23.2195122 L7.83973255,23.2195122 L7.83973255,2.40957202 C7.83973255,1.08102163 8.91419952,0 10.2351798,0 L27.2210782,0 C28.5418407,0 29.6165255,1.08102163 29.6165255,2.40957202 L29.6165255,7.00966406 C29.6165255,10.4354183 27.0825778,13.4129922 23.7222009,13.9363074 L23.3504711,13.9941371 L30.6877259,23.2195122 L27.1450772,23.2195122 Z" id="Fill-7"></path>
                    </g>
                </g>
                <path d="M21.933588,11.1963867 L26.9536688,-1.77635684e-14 L37.9468041,14.50481 L50.5832385,13.1249466 L43.1983878,29.6634533 L50.7408278,39.645127 L32.3637715,41.6779212 L27.2697772,53.0381047 L16.276177,38.5337459 L3.64253182,39.9127068 L11.0603879,23.295686 L3.4630938,13.2400104 L21.933588,11.1963867 Z M23.1292217,15.8950517 L23.0515892,16.3327455 L33.511524,15.2583652 L28.7434003,26.3184803 L33.2674697,32.1339412 L36.0278401,26.0856453 L37.2411386,23.4233843 C38.15088,21.4298472 37.8896257,19.1014969 36.5591811,17.347112 L27.5896045,5.51178268 L23.5578275,14.5075174 C23.3579354,14.9519796 23.2138272,15.4185521 23.1292217,15.8950517 Z M8.6765585,15.457358 L12.4889191,20.5025681 L12.7678383,20.1510594 C14.284229,18.2405488 16.555561,17.0010181 18.9998229,16.7492314 L20.1963863,16.6264966 L20.2159106,16.3444775 C20.2563539,15.7614874 20.3581594,15.1784974 20.5180731,14.6113005 L20.6538138,14.1325447 L8.6765585,15.457358 Z M40.8633692,26.7958823 L41.219921,27.1383664 L46.0057095,16.419833 L39.7314222,17.1043499 L39.9094656,17.5181285 C40.8791747,19.770672 40.8550017,22.3345647 39.842525,24.5519122 L39.3544164,25.6240363 L39.5933572,25.7815158 C40.0428819,26.0770719 40.4700932,26.4182023 40.8633692,26.7958823 Z M14.2419263,23.1264745 L8.21773642,36.6178204 L18.223033,35.5271959 C18.7185794,35.472597 19.2048285,35.361143 19.669229,35.1941877 L20.0964403,35.0412205 L13.911407,26.7430884 L26.1192355,25.2422951 L29.0199952,18.5126409 L19.2991962,19.5116656 C17.0743507,19.7390858 15.1363272,21.124364 14.2419263,23.1264745 Z M24.7962288,36.6218815 C25.9644353,38.1881032 27.8527183,39.1226019 29.8465257,39.1226019 C30.0757043,39.1226019 30.3076721,39.1104187 30.5345264,39.085601 L45.5268983,37.4277795 L39.5552382,29.5222181 C39.2600487,29.1323548 38.9179078,28.776785 38.5371831,28.4672408 L38.1871395,28.1825142 L33.9108433,37.5550265 L26.4748575,27.9979609 L19.0486338,28.9094468 L24.7962288,36.6218815 Z M19.5088505,38.1249309 L26.6338414,47.5258707 L29.1645683,41.8805238 L28.7080705,41.8236687 C26.221041,41.5172831 23.9557522,40.2163851 22.4932859,38.2557878 L21.785296,37.3059472 L21.5254363,37.4295844 C21.0387223,37.6610657 20.5222569,37.8510339 19.9913807,37.9945252 L19.5088505,38.1249309 Z M5.41176471,42.6898135 L8.60399494,42.3414634 C9.13347656,42.9713814 9.69503388,43.5764818 10.2742561,44.1418738 C13.7384325,47.5202379 18.0770207,49.7989528 22.829339,50.738415 L25.1364656,53.7824172 C17.2021441,53.0414964 10.0762235,49.0368242 5.41176471,42.6898135 Z M46.9951141,44.1300378 L50.868837,43.7018199 C46.2169296,50.0420621 39.1026305,54.0548565 31.1678442,54.8057044 L32.4545914,51.9367797 C37.5983263,51.1304305 42.2762662,48.7921532 45.9933294,45.1674172 C46.3257081,44.8429823 46.6622706,44.4950835 46.9951141,44.1300378 Z M52.2894776,19.2080338 L53.8416629,15.7326552 C55.4514916,19.1818624 56.2770924,22.8630023 56.2975465,26.6894384 L56.2975465,26.9773236 C56.2770924,30.7978937 55.4538159,34.4758749 53.848171,37.9223748 L51.946407,35.4049589 C53.0058351,32.6754645 53.5432194,29.7921005 53.5432194,26.833381 C53.5432194,24.2230115 53.1215865,21.6582164 52.2894776,19.2080338 Z M-6.75085663e-14,26.915505 C-6.65604049e-14,23.0073961 0.838617059,19.2486446 2.49353764,15.7326552 L4.39111793,18.2442051 C3.30472765,21.0048344 2.75432709,23.920687 2.75432709,26.915505 C2.75432709,29.5358015 3.17921401,32.1096213 4.01783107,34.567926 L2.46750518,38.0405972 C0.829784618,34.5408521 -6.84515823e-14,30.802406 -6.75085663e-14,26.915505 Z M24.7905739,-1.77635684e-14 L23.5047564,2.8671197 C18.3526539,3.67076153 13.6672762,6.01039258 9.9441698,9.64054335 C9.66432087,9.91398914 9.38028815,10.2045817 9.09857976,10.5078087 L5.1946407,10.9396365 C9.85398592,4.69189655 16.930166,0.739115844 24.7905739,-1.77635684e-14 Z M33.4768303,3.04670951 L31.1678442,-1.77635684e-14 C39.094263,0.746335535 46.2136755,4.75191023 50.8739505,11.0930549 L47.6812554,11.441405 C47.1513089,10.8110357 46.5897516,10.2050329 46.0086699,9.63873843 C42.5500718,6.26578914 38.2193864,3.98842793 33.4768303,3.04670951 Z" id="合并形状" fill="url(#linearGradient-2)"></path>
            </g>
        </g>
    </g>
</svg>