<?xml version="1.0" encoding="utf-8"?>
<!-- Generator: Adobe Illustrator 23.0.1, SVG Export Plug-In . SVG Version: 6.00 Build 0)  -->
<svg version="1.1" id="图层_1" xmlns="http://www.w3.org/2000/svg" xmlns:xlink="http://www.w3.org/1999/xlink" x="0px" y="0px"
	 viewBox="0 0 1000 414.7" style="enable-background:new 0 0 1000 414.7;" xml:space="preserve">
<style type="text/css">
	.st0{fill:url(#SVGID_1_);}
	.st1{fill:url(#SVGID_2_);}
	.st2{fill:url(#SVGID_3_);}
	.st3{fill:url(#SVGID_4_);}
	.st4{fill:url(#SVGID_5_);}
	.st5{fill:url(#SVGID_6_);}
	.st6{fill:url(#SVGID_7_);}
	.st7{fill:#FFFFFF;}
</style>
<g>
	<g>
		
			<linearGradient id="SVGID_1_" gradientUnits="userSpaceOnUse" x1="53.0745" y1="114.7245" x2="244.6408" y2="306.2908" gradientTransform="matrix(1 0 0 -1 0 416)">
			<stop  offset="0" style="stop-color:#009DDE"/>
			<stop  offset="0.5" style="stop-color:#694D9F"/>
			<stop  offset="1" style="stop-color:#ED3554"/>
		</linearGradient>
		<path class="st0" d="M91.2,271.5l-64.7,7.3l38-87.7l-38.9-53l94.6-10.8l25.7-59.1l56.3,76.5l64.7-7.3L229,224.7l38.6,52.7
			l-94.1,10.7l-26,59.9L91.2,271.5z M118,265.7c-2.5,1.2-5.1,2.2-7.9,3l-2.5,0.7l36.5,49.6l13-29.8l-2.3-0.3
			c-12.7-1.6-24.3-8.5-31.8-18.8l-3.6-5L118,265.7z M105.4,220.8l29.4,40.7c6,8.3,15.6,13.2,25.9,13.2c1.2,0,2.4-0.1,3.5-0.2
			l76.8-8.7L210.4,224c-1.5-2.1-3.3-3.9-5.2-5.6l-1.8-1.5l-21.9,49.4l-38.1-50.4L105.4,220.8z M106.6,171.2
			c-11.4,1.2-21.3,8.5-25.9,19.1l-30.8,71.2l51.2-5.8c2.5-0.3,5-0.9,7.4-1.8l2.2-0.8L79,209.3l62.5-7.9l14.9-35.5L106.6,171.2z
			 M155,207.1l23.2,30.7l14.1-31.9l6.2-14c4.7-10.5,3.3-22.8-3.5-32.1l-45.9-62.4l-20.6,47.4c-1,2.3-1.8,4.8-2.2,7.3l-0.4,2.3
			l53.6-5.7L155,207.1z M211.3,158.5l0.9,2.2c5,11.9,4.8,25.4-0.3,37.1l-2.5,5.7l1.2,0.8c2.3,1.6,4.5,3.4,6.5,5.3l1.8,1.8l24.5-56.5
			L211.3,158.5z M52.3,149.8l19.5,26.6l1.4-1.9c7.8-10.1,19.4-16.6,31.9-17.9l6.1-0.6l0.1-1.5c0.2-3.1,0.7-6.2,1.5-9.1l0.7-2.5
			L52.3,149.8z"/>
		
			<linearGradient id="SVGID_2_" gradientUnits="userSpaceOnUse" x1="77.0746" y1="90.7245" x2="268.6408" y2="282.2909" gradientTransform="matrix(1 0 0 -1 0 416)">
			<stop  offset="0" style="stop-color:#009DDE"/>
			<stop  offset="0.5" style="stop-color:#694D9F"/>
			<stop  offset="1" style="stop-color:#ED3554"/>
		</linearGradient>
		<path class="st1" d="M132.9,349.2c-40.6-3.9-77.1-25-101-58.5l16.3-1.8c2.7,3.3,5.6,6.5,8.6,9.5c17.7,17.8,39.9,29.8,64.3,34.8
			L132.9,349.2z"/>
		
			<linearGradient id="SVGID_3_" gradientUnits="userSpaceOnUse" x1="139.7774" y1="28.0216" x2="331.3437" y2="219.5879" gradientTransform="matrix(1 0 0 -1 0 416)">
			<stop  offset="0" style="stop-color:#009DDE"/>
			<stop  offset="0.5" style="stop-color:#694D9F"/>
			<stop  offset="1" style="stop-color:#ED3554"/>
		</linearGradient>
		<path class="st2" d="M167,334c26.3-4.3,50.3-16.6,69.3-35.7c1.7-1.7,3.4-3.5,5.1-5.5l19.8-2.3c-23.8,33.4-60.2,54.6-100.9,58.6
			L167,334z"/>
		
			<linearGradient id="SVGID_4_" gradientUnits="userSpaceOnUse" x1="117.5495" y1="50.2495" x2="309.1158" y2="241.8158" gradientTransform="matrix(1 0 0 -1 0 416)">
			<stop  offset="0" style="stop-color:#009DDE"/>
			<stop  offset="0.5" style="stop-color:#694D9F"/>
			<stop  offset="1" style="stop-color:#ED3554"/>
		</linearGradient>
		<path class="st3" d="M265.3,253.4c5.4-14.4,8.2-29.6,8.2-45.2c0-13.8-2.2-27.3-6.4-40.2l7.9-18.3c8.3,18.4,12.6,38.1,12.6,58.6
			c0,20.4-4.2,40.1-12.5,58.5L265.3,253.4z"/>
		
			<linearGradient id="SVGID_5_" gradientUnits="userSpaceOnUse" x1="-10.9755" y1="178.7746" x2="180.5909" y2="370.3408" gradientTransform="matrix(1 0 0 -1 0 416)">
			<stop  offset="0" style="stop-color:#009DDE"/>
			<stop  offset="0.5" style="stop-color:#694D9F"/>
			<stop  offset="1" style="stop-color:#ED3554"/>
		</linearGradient>
		<path class="st4" d="M18.2,266.8c-8.4-18.5-12.6-38.2-12.6-58.7c0-20.6,4.3-40.4,12.8-59l9.7,13.2c-5.6,14.6-8.4,29.9-8.4,45.7
			c0,13.8,2.2,27.4,6.5,40.4L18.2,266.8z"/>
		
			<linearGradient id="SVGID_6_" gradientUnits="userSpaceOnUse" x1="-33.3151" y1="201.1142" x2="158.2512" y2="392.6805" gradientTransform="matrix(1 0 0 -1 0 416)">
			<stop  offset="0" style="stop-color:#009DDE"/>
			<stop  offset="0.5" style="stop-color:#694D9F"/>
			<stop  offset="1" style="stop-color:#ED3554"/>
		</linearGradient>
		<path class="st5" d="M32.5,124.8c23.9-33,60.1-53.8,100.3-57.7l-6.6,15.1C99.9,86.5,75.9,98.8,56.8,118c-1.4,1.4-2.9,3-4.3,4.6
			L32.5,124.8z"/>
		
			<linearGradient id="SVGID_7_" gradientUnits="userSpaceOnUse" x1="29.4495" y1="138.3495" x2="221.0158" y2="329.9158" gradientTransform="matrix(1 0 0 -1 0 416)">
			<stop  offset="0" style="stop-color:#009DDE"/>
			<stop  offset="0.5" style="stop-color:#694D9F"/>
			<stop  offset="1" style="stop-color:#ED3554"/>
		</linearGradient>
		<path class="st6" d="M244.9,127.5c-2.7-3.3-5.6-6.5-8.6-9.5c-17.7-17.8-39.9-29.8-64.2-34.8l-11.8-16.1
			c40.6,3.9,77,25.1,100.9,58.5L244.9,127.5z"/>
	</g>
	<g>
		<path class="st7" d="M378.9,259h-18.3V157.8h18.3V259z"/>
		<path class="st7" d="M501.4,191.8c0,4.2-0.5,7.9-1.6,11.2c-1,3.3-2.4,6.2-4.2,8.7c-1.8,2.5-3.8,4.7-6.1,6.5
			c-2.3,1.8-4.7,3.3-7.2,4.4c-2.5,1.2-5.1,2-7.6,2.5c-2.6,0.5-5,0.8-7.2,0.8l38.3,33.1h-23.1c-3.4,0-6.7-1.2-9.2-3.4l-34.3-29.7H426
			v-4.2c0-7.8,6.3-14.1,14.1-14.1h27.4c2.3-0.2,4.4-0.7,6.3-1.4c1.9-0.8,3.6-1.8,4.9-3.1c1.4-1.3,2.5-2.9,3.2-4.8
			c0.8-1.9,1.1-4,1.1-6.4v-11.6c0-1-0.1-1.8-0.4-2.4c-0.3-0.5-0.6-0.9-1-1.2s-0.8-0.4-1.3-0.5c-0.4,0-0.9-0.1-1.2-0.1h-57
			c-1.9,0-3.5,1.6-3.5,3.5V259h-18.3v-91.9c0-1.3,0.2-2.5,0.7-3.6s1.1-2.1,1.9-3c0.8-0.8,1.8-1.5,2.9-2s2.4-0.7,3.7-0.7h69.6
			c4.1,0,7.5,0.7,10.4,2.2c2.8,1.5,5.1,3.3,6.9,5.6c1.8,2.2,3,4.6,3.8,7.2c0.8,2.6,1.2,5,1.2,7.3L501.4,191.8L501.4,191.8z"/>
		<path class="st7" d="M538.3,259H520V157.8h18.3V259z"/>
		<path class="st7" d="M657,229.2c0,3.6-0.5,6.9-1.4,9.8c-0.9,2.9-2.1,5.4-3.6,7.7c-1.5,2.2-3.3,4.1-5.3,5.6c-2,1.6-4.1,2.8-6.3,3.8
			s-4.4,1.7-6.6,2.2c-2.2,0.5-4.3,0.7-6.3,0.7h-70.8v-4.2c0-7.8,6.3-14.1,14.1-14.1h56.7c3.5,0,6.3-1,8.2-3.1c2-2.1,2.9-4.8,2.9-8.3
			c0-1.7-0.3-3.2-0.8-4.7c-0.5-1.4-1.3-2.6-2.2-3.7c-1-1-2.1-1.8-3.5-2.4c-1.4-0.6-2.9-0.8-4.6-0.8h-42.2c-3,0-6.2-0.5-9.6-1.6
			c-3.4-1.1-6.6-2.8-9.6-5.1c-2.9-2.4-5.4-5.4-7.3-9.2c-2-3.8-2.9-8.5-2.9-14s1-10.1,2.9-13.9c2-3.8,4.4-6.9,7.3-9.2
			c2.9-2.4,6.1-4.1,9.6-5.2c3.4-1.1,6.6-1.6,9.6-1.6h62.4v4.2c0,7.8-6.3,14.1-14.1,14.1h-48.3c-3.5,0-6.2,1.1-8.1,3.2
			c-2,2.1-2.9,4.9-2.9,8.4s1,6.3,2.9,8.4c2,2,4.7,3.1,8.1,3.1h42.2h0.1c2,0,4.1,0.3,6.3,0.8s4.4,1.3,6.6,2.3c2.2,1,4.3,2.3,6.2,3.9
			c2,1.6,3.7,3.5,5.3,5.7c1.5,2.2,2.7,4.8,3.6,7.6C656.6,222.4,657,225.6,657,229.2z"/>
		<path class="st7" d="M773.4,251.2c0,1.3-0.2,2.5-0.7,3.7c-0.5,1.1-1.2,2.1-2,2.9s-1.8,1.5-2.9,1.9c-1.1,0.5-2.3,0.7-3.6,0.7
			c-1.1,0-2.3-0.2-3.4-0.6c-1.2-0.4-2.2-1.1-3.1-2l-64-66.8c-1.1-1.1-3-0.4-3,1.2V259h-18.3v-93.3c0-1.9,0.5-3.6,1.6-5.1
			s2.4-2.7,4.1-3.4c1.7-0.7,3.5-0.9,5.4-0.5c1.8,0.4,3.4,1.2,4.7,2.6l64,66.8c1.1,1.1,3,0.4,3-1.2V158h18.3L773.4,251.2L773.4,251.2
			z"/>
		<path class="st7" d="M886.1,259h-66.2c-2.5,0-5.3-0.4-8.3-1.3s-5.8-2.4-8.4-4.4c-2.6-2-4.7-4.7-6.4-8s-2.6-7.3-2.6-12v-66.2
			c0-1.3,0.2-2.5,0.7-3.6s1.1-2.1,1.9-3c0.8-0.8,1.8-1.5,2.9-2c1.1-0.5,2.4-0.7,3.7-0.7h79.1v4.2c0,7.8-6.3,14.1-14.1,14.1H816
			c-1.9,0-3.5,1.6-3.5,3.5v53.6c0,2.4,0.6,4.2,1.9,5.5c1.3,1.3,3.1,1.9,5.6,1.9h52c7.8,0,14.1,6.3,14.1,14.1V259z M877.9,217.6H820
			v-18.5h57.9V217.6z"/>
		<path class="st7" d="M981.2,176.2h-26.3V259h-18.3v-82.8H896v-18.3h99.3v4.2C995.3,169.8,988.9,176.2,981.2,176.2z"/>
	</g>
</g>
</svg>
