<?xml version="1.0" encoding="utf-8"?>
<!-- Generator: Adobe Illustrator 23.0.1, SVG Export Plug-In . SVG Version: 6.00 Build 0)  -->
<svg version="1.1" id="图层_1" xmlns="http://www.w3.org/2000/svg" xmlns:xlink="http://www.w3.org/1999/xlink" x="0px" y="0px"
	 viewBox="0 0 1000 414.7" style="enable-background:new 0 0 1000 414.7;" xml:space="preserve">
<style type="text/css">
	.st0{fill:#FFFFFF;}
</style>
<g>
	<g>
		<path class="st0" d="M105,274.5l-70.8,8l41.6-95.9l-42.6-58.1l103.5-11.8l28.1-64.6l61.6,83.7l70.8-8l-41.4,95.5l42.3,57.6
			l-103,11.7l-28.5,65.6L105,274.5z M134.4,268.2c-2.7,1.3-5.6,2.4-8.6,3.3l-2.7,0.8l39.9,54.3l14.2-32.6l-2.6-0.3
			c-13.9-1.8-26.6-9.3-34.8-20.6l-4-5.5L134.4,268.2z M120.5,219l32.2,44.5c6.5,9,17.1,14.4,28.3,14.4c1.3,0,2.6-0.1,3.9-0.2l84-9.6
			l-33.5-45.6c-1.7-2.3-3.6-4.3-5.7-6.1l-2-1.6l-24,54.1L162,213.7L120.5,219z M121.9,164.7c-12.5,1.3-23.3,9.3-28.3,20.9
			l-33.8,77.9l56.1-6.3c2.8-0.3,5.5-1,8.1-1.9l2.4-0.9l-34.7-47.9l68.4-8.7l16.3-38.9L121.9,164.7z M174.9,204l25.4,33.6l15.5-34.9
			l6.8-15.4c5.1-11.5,3.6-25-3.8-35.1l-50.3-68.3l-22.6,51.9c-1.1,2.6-1.9,5.3-2.4,8l-0.4,2.5l58.6-6.2L174.9,204z M236.4,150.8
			l1,2.4c5.4,13,5.3,27.8-0.4,40.6l-2.7,6.2l1.3,0.9c2.5,1.7,4.9,3.7,7.1,5.9l2,2l26.8-61.9L236.4,150.8z M62.4,141.3l21.4,29.1
			l1.6-2c8.5-11,21.2-18.2,34.9-19.6l6.7-0.7l0.1-1.6c0.2-3.4,0.8-6.7,1.7-10l0.8-2.8L62.4,141.3z"/>
		<path class="st0" d="M150.7,359.5c-44.5-4.3-84.4-27.4-110.5-64l17.9-2c3,3.6,6.1,7.1,9.4,10.4c19.4,19.5,43.7,32.7,70.4,38.1
			L150.7,359.5z"/>
		<path class="st0" d="M188,343c28.8-4.7,55-18.2,75.9-39.1c1.9-1.9,3.7-3.9,5.6-6l21.7-2.5c-26.1,36.6-65.9,59.8-110.4,64.1
			L188,343z"/>
		<path class="st0" d="M295.6,254.7c5.9-15.8,9-32.4,9-49.5c0-15.1-2.4-29.9-7-44l8.7-20.1c9.1,20.2,13.8,41.7,13.8,64.1
			s-4.6,43.9-13.7,64L295.6,254.7z"/>
		<path class="st0" d="M25.1,269.4c-9.2-20.2-13.8-41.8-13.8-64.2c0-22.6,4.7-44.3,14-64.6l10.6,14.5c-6.1,15.9-9.2,32.8-9.2,50.1
			c0,15.1,2.4,30,7.1,44.2L25.1,269.4z"/>
		<path class="st0" d="M40.8,114c26.1-36.1,65.8-58.9,109.8-63.2l-7.2,16.6c-28.9,4.6-55.1,18.1-76,39.1c-1.6,1.6-3.2,3.3-4.7,5
			L40.8,114z"/>
		<path class="st0" d="M273.3,116.9c-3-3.6-6.1-7.1-9.4-10.4c-19.4-19.5-43.7-32.6-70.2-38.1l-12.9-17.6
			c44.4,4.3,84.3,27.4,110.4,64L273.3,116.9z"/>
	</g>
	<g>
		<path class="st0" d="M960.7,255.3c-15.4,0-28-12.5-28-28v-42.9h-17.4V169h17.4v-15.9h15.4V169H977v15.4h-28.9v42.9
			c0,6.9,5.6,12.5,12.5,12.5h13.5c8,0,14.5,6.5,14.5,14.5v1L960.7,255.3L960.7,255.3z"/>
		<g>
			<rect x="390.6" y="153.1" class="st0" width="15.4" height="102.3"/>
			<rect x="541.1" y="153.1" class="st0" width="15.4" height="102.3"/>
			<path class="st0" d="M575.8,255.3v-1c0-8,6.5-14.5,14.5-14.5h52.6c3.9,0,7.5-1.5,10.1-4.3c2.7-2.8,4-6.5,3.8-10.3
				c-0.4-7.4-6.7-13.3-14.3-13.3h-37.2c-8,0-15.5-3.2-21.1-8.9s-8.5-13.3-8.3-21.3c0.4-15.8,13.9-28.6,30-28.6H665v1
				c0,8-6.5,14.5-14.5,14.5h-45.3c-3.9,0-7.5,1.5-10.1,4.3c-2.7,2.8-4,6.5-3.8,10.3c0.4,7.4,6.7,13.3,14.3,13.3h37.2
				c8,0,15.5,3.2,21.1,8.9s8.5,13.3,8.3,21.3c-0.4,15.8-13.9,28.6-30,28.6H575.8z"/>
			<path class="st0" d="M510.8,255.3c-5,0-9.7-2.2-12.8-6.2l-27.5-34.4h-19.2v-1c0-8,6.5-14.5,14.5-14.5h25.1
				c8.5,0,15.4-6.9,15.4-15.4v-11.6c0-2.1-1.7-3.9-3.9-3.9h-57.9c-2.1,0-3.9,1.7-3.9,3.9v83h-15.4v-91.6c0-5.9,4.8-10.6,10.6-10.6
				H511c5.9,0,10.6,4.8,10.6,10.6V184c0,15.1-11.2,28.2-26.1,30.5l-1.6,0.3l32.5,40.6L510.8,255.3L510.8,255.3z"/>
		</g>
		<path class="st0" d="M831.5,255.3c-15.4,0-28-12.5-28-28V197c0-15.4,12.6-28,28-28H872c7.6,0,14.7,3,20.1,8.5
			c5.3,5.5,8.1,12.7,7.9,20.3c-0.4,15-13.2,27.2-28.6,27.2h-46.7v-1c0-8,6.5-14.5,14.5-14.5h32.5c6.6,0,12.2-5,12.8-11.3
			c0.3-3.6-0.8-7-3.2-9.6s-5.8-4.1-9.3-4.1h-40.5c-6.9,0-12.5,5.6-12.5,12.5v30.4c0,6.9,5.6,12.5,12.5,12.5h54
			c8,0,14.5,6.5,14.5,14.5v1L831.5,255.3L831.5,255.3z"/>
		<path class="st0" d="M787.1,255.3c-8,0-14.5-6.5-14.5-14.5v-41c0-7.7-6.3-14-14-14h-47.8c-2.1,0-3.9,1.7-3.9,3.9v65.6h-15.4V181
			c0-5.9,4.8-10.6,10.6-10.6h56.4c16.2,0,29.4,13.2,29.4,29.4v55.5L787.1,255.3L787.1,255.3z"/>
	</g>
</g>
</svg>
