<?xml version="1.0" encoding="utf-8"?>
<!-- Generator: Adobe Illustrator 23.0.1, SVG Export Plug-In . SVG Version: 6.00 Build 0)  -->
<svg version="1.1" id="图层_1" xmlns="http://www.w3.org/2000/svg" xmlns:xlink="http://www.w3.org/1999/xlink" x="0px" y="0px"
	 viewBox="0 0 1000 1000" style="enable-background:new 0 0 1000 1000;" xml:space="preserve">
<style type="text/css">
	.st0{fill:url(#SVGID_1_);}
	.st1{fill:url(#SVGID_2_);}
	.st2{fill:url(#SVGID_3_);}
	.st3{fill:url(#SVGID_4_);}
	.st4{fill:url(#SVGID_5_);}
	.st5{fill:url(#SVGID_6_);}
	.st6{fill:url(#SVGID_7_);}
	.st7{fill:url(#SVGID_8_);}
	.st8{fill:#FFFFFF;}
	.st9{fill:url(#SVGID_9_);}
	.st10{fill:url(#SVGID_10_);}
</style>
<g>
	<linearGradient id="SVGID_1_" gradientUnits="userSpaceOnUse" x1="260.2062" y1="580.6473" x2="726.7114" y2="114.1422">
		<stop  offset="0" style="stop-color:#009DDE"/>
		<stop  offset="0.5" style="stop-color:#694D9F"/>
		<stop  offset="1" style="stop-color:#ED3554"/>
	</linearGradient>
	<path class="st0" d="M384.2,474.3l-137.2,15.4l80.5-185.9l-82.5-112.5l200.6-22.9l54.5-125.2l119.4,162.3l137.2-15.4l-80.2,185
		l81.9,111.7l-199.5,22.7l-55.3,127.1L384.2,474.3z M441.2,462c-5.3,2.6-10.9,4.7-16.7,6.3l-5.2,1.5l77.4,105.2l27.5-63.2l-5-0.6
		c-27-3.4-51.6-18-67.5-39.9l-7.7-10.6L441.2,462z M414.3,366.7l62.4,86.3c12.7,17.5,33.2,28,54.8,28c2.5,0,5-0.1,7.5-0.4
		l162.8-18.5L637,373.5c-3.2-4.4-6.9-8.3-11.1-11.8l-3.8-3.2l-46.4,104.8L495,356.5L414.3,366.7z M417.1,261.5
		c-24.2,2.5-45.2,18-54.9,40.4l-65.4,150.9l108.6-12.2c5.4-0.6,10.7-1.9,15.7-3.7l4.6-1.7l-67.2-92.8l132.5-16.8l31.5-75.3
		L417.1,261.5z M519.6,337.7l49.1,65.1l30-67.7l13.2-29.8c9.9-22.3,7-48.3-7.4-68l-97.4-132.4l-43.8,100.6c-2.2,5-3.7,10.2-4.7,15.5
		l-0.8,4.9l113.6-12L519.6,337.7z M638.9,234.6l1.9,4.6c10.5,25.2,10.3,53.9-0.7,78.7l-5.3,12l2.6,1.8c4.9,3.3,9.5,7.1,13.8,11.3
		l3.9,3.8L707,227L638.9,234.6z M301.7,216.2l41.4,56.4l3-3.9c16.5-21.4,41.1-35.2,67.7-38.1l13-1.4l0.2-3.2
		c0.4-6.5,1.5-13,3.3-19.4l1.5-5.4L301.7,216.2z"/>
	<linearGradient id="SVGID_2_" gradientUnits="userSpaceOnUse" x1="311.1239" y1="631.565" x2="777.629" y2="165.0599">
		<stop  offset="0" style="stop-color:#009DDE"/>
		<stop  offset="0.5" style="stop-color:#694D9F"/>
		<stop  offset="1" style="stop-color:#ED3554"/>
	</linearGradient>
	<path class="st1" d="M472.8,639c-86.2-8.3-163.5-53.1-214.2-124.1l34.7-3.9c5.7,7,11.8,13.8,18.1,20.1
		c37.6,37.8,84.7,63.3,136.3,73.8L472.8,639z"/>
	<linearGradient id="SVGID_3_" gradientUnits="userSpaceOnUse" x1="444.2065" y1="764.6476" x2="910.7117" y2="298.1425">
		<stop  offset="0" style="stop-color:#009DDE"/>
		<stop  offset="0.5" style="stop-color:#694D9F"/>
		<stop  offset="1" style="stop-color:#ED3554"/>
	</linearGradient>
	<path class="st2" d="M545.1,606.9c55.9-9,106.6-35.2,147-75.7c3.6-3.6,7.3-7.5,10.9-11.6l42.1-4.8
		c-50.5,70.9-127.8,115.8-213.9,124.2L545.1,606.9z"/>
	<linearGradient id="SVGID_4_" gradientUnits="userSpaceOnUse" x1="396.8088" y1="717.2499" x2="863.314" y2="250.7448">
		<stop  offset="0" style="stop-color:#009DDE"/>
		<stop  offset="0.5" style="stop-color:#694D9F"/>
		<stop  offset="1" style="stop-color:#ED3554"/>
	</linearGradient>
	<path class="st3" d="M753.6,435.8c11.5-30.5,17.3-62.8,17.3-95.9c0-29.2-4.6-57.9-13.6-85.3l16.9-38.9
		c17.7,39.1,26.7,80.8,26.7,124.2c0,43.3-8.9,85-26.6,124L753.6,435.8z"/>
	<linearGradient id="SVGID_5_" gradientUnits="userSpaceOnUse" x1="124.4143" y1="444.8555" x2="590.9195" y2="-21.6497">
		<stop  offset="0" style="stop-color:#009DDE"/>
		<stop  offset="0.5" style="stop-color:#694D9F"/>
		<stop  offset="1" style="stop-color:#ED3554"/>
	</linearGradient>
	<path class="st4" d="M229.5,464.4c-17.8-39.1-26.8-81-26.8-124.4c0-43.7,9.1-85.8,27.1-125.1l20.6,28.1
		c-11.8,30.9-17.8,63.5-17.8,97c0,29.3,4.6,58.1,13.7,85.6L229.5,464.4z"/>
	<linearGradient id="SVGID_6_" gradientUnits="userSpaceOnUse" x1="77.1223" y1="397.5634" x2="543.6275" y2="-68.9417">
		<stop  offset="0" style="stop-color:#009DDE"/>
		<stop  offset="0.5" style="stop-color:#694D9F"/>
		<stop  offset="1" style="stop-color:#ED3554"/>
	</linearGradient>
	<path class="st5" d="M259.9,163.2C310.5,93.4,387.3,49.1,472.7,40.9l-14,32.1c-55.9,9-106.8,35.2-147.2,75.8
		c-3,3.1-6.1,6.3-9.2,9.7L259.9,163.2z"/>
	<linearGradient id="SVGID_7_" gradientUnits="userSpaceOnUse" x1="210.2184" y1="530.6595" x2="676.7236" y2="64.1544">
		<stop  offset="0" style="stop-color:#009DDE"/>
		<stop  offset="0.5" style="stop-color:#694D9F"/>
		<stop  offset="1" style="stop-color:#ED3554"/>
	</linearGradient>
	<path class="st6" d="M710.3,168.9c-5.8-7.1-11.9-13.8-18.2-20.2C654.6,111,607.5,85.5,556,75L531,40.9C617,49.2,694.3,94,744.9,165
		L710.3,168.9z"/>
</g>
<g>
	<linearGradient id="SVGID_8_" gradientUnits="userSpaceOnUse" x1="527.5359" y1="988.5206" x2="985.5715" y2="837.4161">
		<stop  offset="0" style="stop-color:#009DDE"/>
		<stop  offset="0.5" style="stop-color:#694D9F"/>
		<stop  offset="1" style="stop-color:#ED3554"/>
	</linearGradient>
	<path class="st7" d="M944,934.5c-25.2,0-45.6-20.5-45.6-45.6v-70h-28.3v-25.2h28.3v-26h25.2v26h47.2v25.2h-47.2v70
		c0,11.3,9.2,20.5,20.5,20.5h22c13,0,23.6,10.6,23.6,23.6v1.6H944z"/>
	<g>
		<rect x="13.9" y="767.7" class="st8" width="25.2" height="166.8"/>
		<rect x="259.4" y="767.7" class="st8" width="25.2" height="166.8"/>
		<path class="st8" d="M316.1,934.5V933c0-13,10.6-23.6,23.6-23.6h85.8c6.3,0,12.2-2.5,16.5-7.1c4.4-4.6,6.6-10.6,6.3-16.9
			c-0.6-12.2-10.9-21.7-23.4-21.7h-60.8c-13.1,0-25.3-5.2-34.4-14.5c-9.1-9.4-13.9-21.7-13.6-34.8c0.7-25.7,22.7-46.7,49-46.7h96.5
			v1.6c0,13-10.6,23.6-23.6,23.6h-74c-6.3,0-12.2,2.5-16.5,7.1c-4.4,4.6-6.6,10.6-6.3,16.9c0.6,12.2,10.9,21.7,23.4,21.7h60.8
			c13.1,0,25.3,5.2,34.4,14.5c9.1,9.4,13.9,21.7,13.6,34.8c-0.7,25.7-22.7,46.7-49,46.7H316.1z"/>
		<path class="st8" d="M210.1,934.5c-8.2,0-15.8-3.7-20.9-10l-44.8-56.1H113v-1.6c0-13,10.6-23.6,23.6-23.6h40.9
			c13.9,0,25.2-11.3,25.2-25.2v-18.9c0-3.5-2.8-6.3-6.3-6.3H102c-3.5,0-6.3,2.8-6.3,6.3v135.4H70.6V785c0-9.5,7.8-17.3,17.3-17.3
			h122.8c9.5,0,17.3,7.8,17.3,17.3v33.1c0,24.6-18.3,46-42.6,49.8l-2.7,0.4l53,66.3H210.1z"/>
	</g>
	<linearGradient id="SVGID_9_" gradientUnits="userSpaceOnUse" x1="515.8228" y1="953.0153" x2="973.8584" y2="801.9108">
		<stop  offset="0" style="stop-color:#009DDE"/>
		<stop  offset="0.5" style="stop-color:#694D9F"/>
		<stop  offset="1" style="stop-color:#ED3554"/>
	</linearGradient>
	<path class="st9" d="M733.1,934.5c-25.2,0-45.6-20.5-45.6-45.6v-49.6c0-25.2,20.5-45.6,45.6-45.6h66.1c12.4,0,24,4.9,32.7,13.8
		c8.7,8.9,13.2,20.7,12.9,33.1c-0.7,24.5-21.6,44.4-46.6,44.4h-76.1v-1.6c0-13,10.6-23.6,23.6-23.6h53c10.8,0,19.9-8.1,20.9-18.5
		c0.5-5.8-1.3-11.4-5.2-15.7c-3.9-4.3-9.4-6.7-15.1-6.7h-66.1c-11.3,0-20.5,9.2-20.5,20.5v49.6c0,11.3,9.2,20.5,20.5,20.5h88.1
		c13,0,23.6,10.6,23.6,23.6v1.6H733.1z"/>
	<linearGradient id="SVGID_10_" gradientUnits="userSpaceOnUse" x1="497.0886" y1="896.2272" x2="955.1242" y2="745.1227">
		<stop  offset="0" style="stop-color:#009DDE"/>
		<stop  offset="0.5" style="stop-color:#694D9F"/>
		<stop  offset="1" style="stop-color:#ED3554"/>
	</linearGradient>
	<path class="st10" d="M660.7,934.5c-13,0-23.6-10.6-23.6-23.6V844c0-12.6-10.2-22.8-22.8-22.8h-77.9c-3.5,0-6.3,2.8-6.3,6.3v107
		h-25.2V813.3c0-9.5,7.8-17.3,17.3-17.3h92.1c26.5,0,48,21.5,48,48v90.5H660.7z"/>
</g>
</svg>
